<?xml version="1.0" encoding="UTF-8" standalone="no"?>
<svg width="19px" height="24px" viewBox="0 0 19 24" version="1.1" xmlns="http://www.w3.org/2000/svg" xmlns:xlink="http://www.w3.org/1999/xlink" xmlns:sketch="http://www.bohemiancoding.com/sketch/ns">
    <!-- Generator: Sketch 3.4.4 (17249) - http://www.bohemiancoding.com/sketch -->
    <title>Shape</title>
    <desc>Created with Sketch.</desc>
    <defs></defs>
    <g id="Page-1" stroke="none" stroke-width="1" fill="none" fill-rule="evenodd" sketch:type="MSPage">
        <g id="Artboard-1" sketch:type="MSArtboardGroup" transform="translate(-3.000000, 0.000000)" fill="#FF6400">
            <path d="M20.5,9.15313962 L7.9,0.55313962 C6.9,-0.14686038 5.7,-0.14686038 4.7,0.35313962 C3.7,0.85313962 3,1.95313962 3,3.05313962 L3,20.3531396 C3,21.5531396 3.6,22.5531396 4.7,23.0531396 C5.2,23.2531396 5.7,23.4531396 6.1,23.4531396 C6.7,23.4531396 7.3,23.2531396 7.9,22.9531396 L20.5,14.3531396 C21.3,13.7531396 21.9,12.8531396 21.9,11.7531396 C21.9,10.6531396 21.3,9.75313962 20.5,9.15313962 L20.5,9.15313962 Z M19.3,12.6531396 L6.7,21.2531396 C6.4,21.4531396 5.9,21.5531396 5.6,21.3531396 C5.2,21.1531396 5,20.7531396 5,20.3531396 L5,3.15313962 C5,2.75313962 5.2,2.35313962 5.6,2.15313962 C5.8,2.05313962 5.9,2.05313962 6.1,2.05313962 C6.3,2.05313962 6.5,2.15313962 6.7,2.25313962 L19.3,10.8531396 C19.6,11.0531396 19.8,11.3531396 19.8,11.7531396 C19.8,12.1531396 19.6,12.4531396 19.3,12.6531396 L19.3,12.6531396 Z" id="Shape" sketch:type="MSShapeGroup"></path>
        </g>
    </g>
</svg>