<?xml version="1.0" encoding="UTF-8" standalone="no"?>
<svg width="1100px" height="335px" viewBox="0 0 1100 335" version="1.1" xmlns="http://www.w3.org/2000/svg" xmlns:xlink="http://www.w3.org/1999/xlink" xmlns:sketch="http://www.bohemiancoding.com/sketch/ns">
    <!-- Generator: Sketch 3.4.4 (17249) - http://www.bohemiancoding.com/sketch -->
    <title>inspired-overlay</title>
    <desc>Created with Sketch.</desc>
    <defs></defs>
    <g id="Page-1" stroke="none" stroke-width="1" fill="none" fill-rule="evenodd" sketch:type="MSPage">
        <g id="Artboard-1" sketch:type="MSArtboardGroup" transform="translate(-293.000000, -121.000000)" fill="#FFFFFF">
            <g id="inspired-overlay" sketch:type="MSLayerGroup" transform="translate(293.000000, 121.000000)">
                <path d="M1.83,0 L1099.16,0 C1099.05,1.33 1098.95,2.67 1098.87,4 L2.14,4 C2.03,2.67 1.93,1.33 1.83,0 L1.83,0 Z" id="Shape" sketch:type="MSShapeGroup"></path>
                <path d="M89.62,46.68 C92.48,45.6 95.73,45.7 98.67,46.43 C101.75,47.76 103.74,50.65 106,53.01 C134.15,83.53 162.38,113.98 190.48,144.54 C191.61,145.7 192.99,146.55 194.37,147.4 C194.73,119.94 194.54,92.47 194.69,65.01 C194.75,59.46 194.39,53.88 195.35,48.38 C203.21,47.7 211.12,48 219,48.06 C221.8,47.75 222.84,50.69 222.58,52.97 C222.56,103.32 222.55,153.67 222.59,204.02 C222.52,205.71 222.6,207.97 220.67,208.68 C218.23,209.37 215.61,209.17 213.15,208.75 C209.46,208.03 207.24,204.7 204.83,202.14 C179.1,173.55 153.28,145.05 127.51,116.49 C124.08,112.72 120.9,108.67 116.86,105.5 C115.89,110.95 116.33,116.5 116.28,122 C116.22,144 116.15,165.99 116.11,187.99 C115.99,194.18 116.39,200.4 115.56,206.56 C107.75,207.4 99.87,207.14 92.04,206.94 C89.21,207.2 88.69,204.23 88.73,202.06 C88.69,152.02 88.77,101.98 88.69,51.95 C88.74,50.17 88.75,48.29 89.62,46.68 L89.62,46.68 Z" id="Shape" sketch:type="MSShapeGroup"></path>
                <path d="M313.33,46.23 C331.65,44.57 349.92,50.3 365.72,59.25 C368.12,60.8 371.8,62.46 371.22,65.93 C370.19,69.28 367.75,71.94 365.91,74.86 C363.8,77.74 362.21,81.15 359.33,83.37 C357.22,84.98 354.88,82.97 352.97,82.03 C345.45,77.46 337.45,73.61 328.98,71.18 C321.51,69.04 312.88,69.78 306.6,74.63 C301.52,78.24 298.82,84.85 300.21,90.96 C301.3,97.1 306.23,101.51 311.17,104.81 C323.91,113.22 338.34,118.62 351.24,126.75 C360.26,132.57 368.45,140.41 372.48,150.55 C376.71,161.86 375.31,174.93 369.34,185.36 C361.44,199.77 345.31,208.84 329,209.09 C310.76,209.49 292.52,204.33 276.82,195.15 C273.51,192.95 269.42,190.94 268,186.97 C269.86,181.87 273.19,177.46 275.67,172.66 C276.91,170.27 279.33,166.88 282.41,168.67 C287.52,171.51 292.27,175 297.62,177.43 C306.14,181.4 315.2,185.61 324.85,184.83 C332.36,184.28 339.77,179.83 342.82,172.79 C345.78,165.69 343.66,157.11 338.25,151.76 C328.77,141.99 315.19,138.56 303.38,132.59 C292.9,127.45 283.03,120.12 277.14,109.83 C269.78,97.27 270.27,80.91 277.36,68.34 C284.6,55.49 298.86,47.54 313.33,46.23 L313.33,46.23 Z" id="Shape" sketch:type="MSShapeGroup"></path>
                <path d="M3.43,48.45 C9.6,47.67 15.82,48.1 22.01,47.96 C24.47,48.02 27.05,47.74 29.4,48.67 C31,51.86 30.28,55.57 30.43,59 C30.38,104.67 30.38,150.33 30.43,196 C30.27,199.43 31.01,203.15 29.39,206.33 C27.05,207.28 24.47,207.04 22.01,207.11 C15.82,206.99 9.59,207.39 3.43,206.55 C2.59,201.07 2.86,195.52 2.86,190 L2.86,65 C2.86,59.48 2.59,53.93 3.43,48.45 L3.43,48.45 Z" id="Shape" sketch:type="MSShapeGroup"></path>
                <path d="M417.59,48.63 C419.63,47.9 421.83,47.98 423.97,47.95 C436.65,48.05 449.32,47.98 462,48 C467.73,48.03 473.54,47.68 479.18,48.9 C493.85,51.97 507.14,61.6 514.13,74.92 C520.91,87.29 521.62,102.59 516.76,115.75 C510.2,133.66 493,147.41 473.85,148.84 C463.96,149.39 454.05,148.81 444.16,149.16 C443.91,166.8 444.14,184.44 444.07,202.07 C444.04,203.83 443.91,206.35 441.75,206.78 C437.2,207.43 432.58,206.94 428,207.09 C424.54,206.99 420.95,207.49 417.61,206.37 C416.82,204.71 416.73,202.84 416.69,201.04 C416.74,154.03 416.73,107.02 416.7,60 C416.82,56.22 416.17,52.24 417.59,48.63 L417.59,48.63 Z M444.16,74.16 C452.13,74.01 460.11,74 468.09,74.1 C477.94,74.28 487.68,80.61 490.98,90.05 C494.58,100.04 490.48,111.83 482.01,118.03 C477.75,121.3 472.4,122.95 467.06,122.97 C459.43,123.01 451.8,123.07 444.17,122.88 C443.98,106.64 444,90.4 444.16,74.16 L444.16,74.16 Z" id="Shape" sketch:type="MSShapeGroup"></path>
                <path d="M561.43,48.45 C567.59,47.67 573.82,48.1 580.01,47.96 C582.47,48.02 585.05,47.74 587.39,48.67 C588.32,50.27 588.37,52.16 588.43,53.96 C588.38,102.98 588.38,152.02 588.43,201.04 C588.37,202.83 588.35,204.74 587.38,206.32 C585.05,207.3 582.46,207.03 580.01,207.11 C573.81,206.99 567.59,207.39 561.43,206.55 C560.59,201.07 560.86,195.52 560.87,190 C560.86,148.33 560.86,106.67 560.87,65 C560.86,59.48 560.59,53.93 561.43,48.45 L561.43,48.45 Z" id="Shape" sketch:type="MSShapeGroup"></path>
                <path d="M655.66,52.95 C655.62,50.71 656.09,47.67 659.04,48.09 C679.35,47.85 699.68,48.1 720,47.98 C735.52,47.73 750.84,55.55 759.87,68.15 C766.13,76.74 769.49,87.42 769,98.06 C768.8,109.74 763.35,120.96 755.02,129.03 C749.35,134.87 742.27,139.06 734.91,142.38 C738,149.33 741.93,155.87 745.42,162.62 C752.01,174.97 758.6,187.33 765.51,199.51 C766.91,201.62 767.15,204.15 766.81,206.61 C757.89,207.35 748.91,206.93 739.96,206.97 C737.92,207.36 736.95,205.41 736.12,203.94 C725.88,184.08 715.7,164.19 705.78,144.17 C698.22,143.98 690.66,144 683.11,144.15 C682.88,160.43 683.05,176.72 683,193 C682.91,196.91 683.33,200.85 682.73,204.73 C682.01,207.15 679.08,207 677.07,207.03 C670.77,206.87 664.45,207.29 658.18,206.82 C655.31,206.56 655.79,203.08 655.63,201.04 C655.7,151.68 655.64,102.31 655.66,52.95 L655.66,52.95 Z M683.32,73.18 C692.54,72.91 701.77,73.15 711,73.04 C716.36,73.02 721.98,72.73 726.97,75.05 C735.25,78.53 741.2,86.99 741.41,96 C741.94,106.17 735.57,116.28 726.15,120.17 C721.41,122.33 716.07,121.98 711,122 C701.77,121.93 692.54,122.15 683.32,121.84 C683.24,105.62 683.25,89.4 683.32,73.18 L683.32,73.18 Z" id="Shape" sketch:type="MSShapeGroup"></path>
                <path d="M816.04,49.1 C817.26,47.7 819.29,48.12 820.94,47.96 C849.32,48.04 877.69,47.99 906.07,47.99 C908.13,47.74 910.81,48.67 910.59,51.2 C910.73,57.64 910.97,64.13 910.45,70.56 C910.25,72.74 907.8,73.11 906.05,73.06 C884.98,73.13 863.89,72.96 842.82,73.12 C842.5,86.38 842.5,99.65 842.81,112.91 C860.54,113.17 878.28,112.84 896.01,113.07 C898.27,112.82 899.8,114.96 899.54,117.06 C899.55,123.55 899.81,130.07 899.4,136.55 C899.12,139.13 895.99,139.04 894.06,139.08 C876.98,139.09 859.89,138.98 842.82,139.12 C842.5,153.38 842.5,167.65 842.81,181.91 C863.89,182.11 884.98,181.95 906.06,181.99 C907.8,181.89 910.25,182.26 910.45,184.44 C910.97,190.86 910.73,197.36 910.59,203.8 C910.81,206.33 908.13,207.26 906.06,207.01 C877.03,206.96 848,207.06 818.97,206.96 C816.58,207.31 815.05,205.14 815.34,202.95 C815.27,152.96 815.36,102.96 815.29,52.97 C815.41,51.68 815.24,50.21 816.04,49.1 L816.04,49.1 Z" id="Shape" sketch:type="MSShapeGroup"></path>
                <path d="M968.23,48.23 C979.46,47.64 990.75,48.19 1002,48 C1012.02,48.21 1022.12,47.35 1032.06,49.03 C1050.25,52.12 1067.2,61.8 1079.28,75.73 C1089.22,87.33 1095.96,101.77 1097.83,116.97 C1099.86,133.14 1097.14,149.98 1089.4,164.37 C1076.31,189.77 1048.6,206.9 1020,207 C1003.64,207 987.28,206.99 970.92,207.02 C969.17,207.01 966.62,206.94 966.3,204.73 C965.7,200.85 966.08,196.91 966.02,193 C966.04,146.31 966.04,99.62 966.02,52.93 C966.08,51.23 966.09,48.64 968.23,48.23 L968.23,48.23 Z M993.1,74.16 C1003.03,74.12 1012.99,73.71 1022.91,74.42 C1038.76,76.09 1053.69,85.49 1061.59,99.4 C1071.07,115.74 1071.27,136.93 1062.63,153.65 C1056.99,164.64 1047.11,173.28 1035.54,177.54 C1022.01,182.74 1007.25,180.61 993.11,180.88 C992.87,145.31 992.89,109.73 993.1,74.16 L993.1,74.16 Z" id="Shape" sketch:type="MSShapeGroup"></path>
                <path d="M345.01,231.04 C354.57,226.49 365.7,230.09 374.17,235.4 C372.91,238.2 371.51,241.15 368.93,242.96 C364.01,241.19 359.46,237.72 354.01,238 C350.73,238.16 346.97,240.44 346.88,244.03 C346.72,246.16 347.85,248.2 349.57,249.42 C356.54,254.75 366.01,256.27 371.96,263.04 C375.64,267.03 376.27,273.22 373.99,278.06 C371.39,283.87 365.2,287.45 359,287.97 C352.74,288.44 346.47,286.89 340.82,284.25 C338.62,283.17 336.33,281.98 334.87,279.94 C335.79,277.29 337.49,275.02 339.06,272.73 C344.18,275.22 349.17,278.57 355,279.01 C359.03,279.38 363.87,276.47 363.6,272 C363.51,267.25 358.82,264.67 355,263.02 C348.55,260.39 341.18,257.71 337.79,251.11 C333.87,243.92 337.62,234.26 345.01,231.04 L345.01,231.04 Z" id="Shape" sketch:type="MSShapeGroup"></path>
                <path d="M658.01,231.04 C667.57,226.49 678.69,230.09 687.16,235.39 C685.92,238.2 684.51,241.15 681.92,242.96 C677.01,241.19 672.46,237.73 667.01,238 C663.74,238.16 659.96,240.43 659.88,244.03 C659.72,246.16 660.84,248.19 662.56,249.42 C669.54,254.75 679.01,256.27 684.96,263.04 C688.64,267.03 689.27,273.21 686.99,278.06 C684.39,283.87 678.2,287.45 672,287.97 C665.48,288.45 658.95,286.77 653.13,283.91 C651.18,282.9 649.14,281.81 647.9,279.93 C648.78,277.27 650.5,275.01 652.06,272.73 C657.18,275.22 662.17,278.57 668,279.01 C672.03,279.38 676.87,276.47 676.6,272 C676.51,267.25 671.82,264.67 668,263.02 C661.54,260.39 654.18,257.7 650.78,251.1 C646.87,243.91 650.62,234.25 658.01,231.04 L658.01,231.04 Z" id="Shape" sketch:type="MSShapeGroup"></path>
                <path d="M0.88,230.03 C7.27,230 13.67,229.96 20.06,229.99 C25.78,229.95 31.75,232.13 35.35,236.72 C38.31,240.39 39.03,245.76 36.94,250.01 C35.4,253.36 32.4,255.66 29.67,258 C32.72,259.96 36.09,261.81 38.02,265.02 C41.01,269.79 40.13,276.35 36.52,280.55 C32.79,285.05 26.77,287.04 21.06,287.01 C14.33,287.02 7.61,287.01 0.88,286.97 C0.43,279.32 0.72,271.65 0.67,264 C0.8,252.68 0.38,241.35 0.88,230.03 L0.88,230.03 Z M11.01,239.01 C15.05,239.2 19.36,238.31 23.19,239.92 C28.75,242.78 28.06,252.18 22.26,254.37 C18.63,255.49 14.75,254.86 11.01,254.99 C11,249.66 11,244.34 11.01,239.01 L11.01,239.01 Z M11.01,263.01 C16.31,263.22 22.78,261.77 26.85,266.13 C30.3,269.68 28.11,276.02 23.58,277.42 C19.49,278.5 15.19,277.85 11.01,277.98 C11,272.99 11,268 11.01,263.01 L11.01,263.01 Z" id="Shape" sketch:type="MSShapeGroup"></path>
                <path d="M45.73,230.25 C49.39,229.95 53.06,229.95 56.73,230.08 C61.48,236.88 66.47,243.5 71.36,250.21 C76.76,243.84 81.41,236.87 86.31,230.12 C90,229.94 93.71,229.94 97.4,230.2 C91.5,240.47 83.28,249.21 76.99,259.21 C76.06,268.37 76.93,277.67 76.62,286.89 C73.18,287.02 69.73,287.02 66.29,286.91 C66.16,278.92 66.33,270.93 66.28,262.94 C66.63,258.03 62.54,254.65 60.1,250.88 C55.37,243.96 49.87,237.55 45.73,230.25 L45.73,230.25 Z" id="Shape" sketch:type="MSShapeGroup"></path>
                <path d="M126.08,230.11 C141.33,229.93 156.58,229.92 171.83,230.12 C171.88,233.04 171.88,235.96 171.83,238.89 C165.97,239.09 160.1,238.94 154.24,239.07 C154.22,255.03 154.46,271 154.13,286.96 C150.75,287.01 147.37,287.01 143.99,286.94 C143.7,270.97 143.94,255 143.87,239.04 C137.94,238.95 132.01,239.09 126.08,238.89 C126,235.96 126,233.04 126.08,230.11 L126.08,230.11 Z" id="Shape" sketch:type="MSShapeGroup"></path>
                <path d="M183.21,230.19 C186.4,229.98 189.59,229.97 192.78,230.17 C193.23,237.77 192.91,245.38 193.01,252.99 C201.7,253 210.38,253.01 219.07,252.98 C219.22,245.39 218.9,237.79 219.3,230.21 C222.45,229.98 225.62,229.97 228.78,230.16 C229.23,238.43 228.91,246.72 229,255 C228.88,265.61 229.27,276.23 228.78,286.83 C225.63,287.05 222.46,287.02 219.32,286.74 C218.86,278.51 219.25,270.26 219.06,262.02 C210.38,261.99 201.69,262 193.01,262.01 C192.67,270.17 193.67,278.44 192.53,286.53 C190.15,287.3 187.57,287.19 185.11,286.94 C182.42,287.08 183.17,283.8 182.96,282.06 C183.18,264.77 182.7,247.47 183.21,230.19 L183.21,230.19 Z" id="Shape" sketch:type="MSShapeGroup"></path>
                <path d="M248.07,230.07 C260.07,229.95 272.07,229.95 284.06,230.08 C284.1,233.02 284.1,235.97 284.06,238.92 C275.46,239.12 266.86,238.88 258.27,239.09 C258.26,244.03 258.26,248.97 258.27,253.91 C265.45,254.1 272.64,253.86 279.83,254.11 C279.87,257.04 279.87,259.96 279.83,262.89 C272.64,263.13 265.45,262.89 258.26,263.09 C258.26,268.03 258.26,272.97 258.27,277.91 C266.86,278.12 275.47,277.88 284.06,278.08 C284.1,281.02 284.1,283.97 284.06,286.92 C272.07,287.05 260.07,287.05 248.07,286.92 C247.95,267.97 247.95,249.02 248.07,230.07 L248.07,230.07 Z" id="Shape" sketch:type="MSShapeGroup"></path>
                <path d="M383.08,230.11 C398.33,229.93 413.58,229.92 428.83,230.12 C428.87,233.04 428.87,235.96 428.83,238.89 C422.97,239.09 417.1,238.94 411.24,239.07 C411.22,255.03 411.46,271 411.13,286.95 C407.75,287.01 404.36,287.01 400.99,286.94 C400.7,270.97 400.93,255 400.88,239.04 C394.94,238.95 389,239.09 383.07,238.89 C383,235.96 383,233.04 383.08,230.11 L383.08,230.11 Z" id="Shape" sketch:type="MSShapeGroup"></path>
                <path d="M442.34,245.36 C450.3,230.92 470.52,225.66 484.73,233.8 C483.29,236.66 481.69,239.43 479.95,242.12 C475.21,240.64 470.17,239.19 465.19,240.43 C456.61,242.22 449.11,249.94 449.26,259 C449.02,269.43 458.88,277.96 468.96,278.02 C478.84,278.6 488.79,271.04 489.96,261.04 C490.8,255.63 488.27,250.57 485.71,246 C488,243.85 490.13,241.4 492.98,239.97 C497.5,243.05 498.98,249.01 500.14,254.09 C502.6,266.08 495.72,278.59 485.08,284.16 C473.44,290.58 457.92,288.87 448.07,279.91 C438.5,271.52 435.81,256.38 442.34,245.36 L442.34,245.36 Z" id="Shape" sketch:type="MSShapeGroup"></path>
                <path d="M516.29,230.11 C524.21,229.89 532.13,230.03 540.06,229.98 C546.26,229.82 552.6,232.65 556.16,237.84 C559.85,242.96 560.31,250.38 556.72,255.68 C554.29,259.61 550.17,261.95 546.17,264 C550.27,271.67 555.31,278.86 558.69,286.89 C554.88,287.05 551.08,287.04 547.28,286.9 C543.4,279.73 539.46,272.58 535.38,265.53 C532.63,264.53 529.57,265.15 526.7,264.99 C526.36,272.11 527.03,279.26 526.4,286.37 C523.36,287.78 519.61,286.75 516.29,286.89 C516.23,267.96 516.23,249.04 516.29,230.11 L516.29,230.11 Z M526.81,239.03 C533.21,239.69 540.98,236.99 546.25,241.75 C551.2,246.28 548.27,255.39 541.86,256.7 C536.87,257.36 531.82,256.86 526.82,256.97 C526.69,250.99 526.69,245.01 526.81,239.03 L526.81,239.03 Z" id="Shape" sketch:type="MSShapeGroup"></path>
                <path d="M570.99,230.06 C574.39,229.98 577.8,229.98 581.21,230.05 C581.52,249.01 581.52,267.99 581.21,286.95 C577.8,287.01 574.39,287.01 570.99,286.94 C570.78,267.98 570.78,249.02 570.99,230.06 L570.99,230.06 Z" id="Shape" sketch:type="MSShapeGroup"></path>
                <path d="M601.08,230.07 C613.07,229.95 625.07,229.94 637.06,230.08 C637.1,233.02 637.1,235.97 637.06,238.92 C628.46,239.12 619.86,238.88 611.26,239.09 L611.26,253.91 C618.45,254.1 625.64,253.86 632.83,254.11 C632.87,257.04 632.87,259.96 632.83,262.88 C625.64,263.14 618.45,262.89 611.26,263.09 C611.26,268.03 611.26,272.97 611.27,277.91 C619.86,278.11 628.47,277.88 637.07,278.08 C637.1,281.03 637.1,283.97 637.06,286.92 C625.07,287.05 613.07,287.05 601.07,286.93 C600.95,267.98 600.95,249.02 601.08,230.07 L601.08,230.07 Z" id="Shape" sketch:type="MSShapeGroup"></path>
                <path d="M768.3,229.66 C769.72,230.16 771.75,230.04 772.24,231.84 C777.63,242.89 781.88,254.52 787.85,265.28 C791.26,255.21 793.55,244.79 796.43,234.56 C796.93,233.28 797.01,231.66 798.19,230.76 C801.32,230.27 804.51,230.56 807.67,230.7 C806.82,235.82 805.24,240.77 803.83,245.75 C799.9,259.81 796.01,273.88 791.88,287.88 C790.6,287.94 789.32,288 788.05,288.07 C781.58,275.39 776.26,262.12 769.34,249.68 C763.23,261.65 758.12,274.1 752.32,286.22 C751.73,288.47 749.04,287.73 747.32,288.14 C743.65,274.73 739.84,261.36 735.99,248 C734.37,242.27 732.49,236.6 731.45,230.72 C734.88,230.49 738.33,230.5 741.77,230.8 C745.08,242.3 747.6,254.07 751.61,265.36 C757.61,253.67 762.58,241.49 768.3,229.66 L768.3,229.66 Z" id="Shape" sketch:type="MSShapeGroup"></path>
                <path d="M820.07,230.07 C832.07,229.95 844.07,229.94 856.06,230.08 C856.1,233.02 856.1,235.97 856.07,238.92 C847.46,239.12 838.86,238.88 830.27,239.09 C830.26,244.03 830.26,248.97 830.27,253.91 C837.45,254.1 844.64,253.86 851.83,254.11 C851.87,257.03 851.87,259.96 851.83,262.88 C844.64,263.14 837.45,262.89 830.27,263.09 C830.26,268.03 830.26,272.97 830.26,277.91 C838.86,278.12 847.46,277.88 856.06,278.08 C856.1,281.02 856.1,283.97 856.06,286.92 C844.07,287.05 832.07,287.05 820.07,286.93 C819.95,267.98 819.95,249.02 820.07,230.07 L820.07,230.07 Z" id="Shape" sketch:type="MSShapeGroup"></path>
                <path d="M902.08,230.11 C917.32,229.92 932.58,229.92 947.83,230.12 C947.87,233.04 947.87,235.96 947.83,238.89 C941.96,239.09 936.1,238.94 930.24,239.07 C930.22,255.03 930.46,271 930.13,286.96 C926.74,287.01 923.36,287.01 919.99,286.94 C919.7,270.97 919.93,255 919.88,239.04 C913.94,238.95 908,239.09 902.08,238.89 C902,235.96 902,233.04 902.08,230.11 L902.08,230.11 Z" id="Shape" sketch:type="MSShapeGroup"></path>
                <path d="M964.07,230.07 C976.07,229.95 988.07,229.95 1000.07,230.08 C1000.1,233.02 1000.1,235.97 1000.06,238.92 C991.46,239.12 982.86,238.88 974.27,239.09 C974.26,244.03 974.26,248.97 974.26,253.91 C981.45,254.1 988.64,253.86 995.83,254.11 C995.87,257.04 995.87,259.96 995.83,262.89 C988.64,263.13 981.45,262.9 974.27,263.09 C974.26,268.03 974.26,272.97 974.27,277.91 C982.86,278.11 991.46,277.88 1000.06,278.08 C1000.1,281.02 1000.1,283.97 1000.06,286.92 C988.07,287.05 976.07,287.05 964.08,286.93 C963.95,267.98 963.95,249.02 964.07,230.07 L964.07,230.07 Z" id="Shape" sketch:type="MSShapeGroup"></path>
                <path d="M1015.17,230.07 C1018.51,229.99 1021.86,229.98 1025.22,230.02 C1025.6,245.97 1025.36,261.94 1025.33,277.9 C1033.86,278.14 1042.39,277.85 1050.93,278.1 C1050.99,281.04 1051,283.99 1050.98,286.94 C1039.04,287.02 1027.1,287.07 1015.17,286.92 C1015.06,267.97 1015.06,249.02 1015.17,230.07 L1015.17,230.07 Z" id="Shape" sketch:type="MSShapeGroup"></path>
                <path d="M1064.18,230.05 C1067.52,230 1070.87,229.99 1074.22,230.01 C1074.6,245.97 1074.34,261.94 1074.34,277.9 C1082.89,278.1 1091.45,277.89 1100,278.09 L1100,286.99 C1088.06,286.96 1076.11,287.1 1064.17,286.92 C1064.06,267.97 1064.05,249.01 1064.18,230.05 L1064.18,230.05 Z" id="Shape" sketch:type="MSShapeGroup"></path>
                <path d="M2.31,331 L1098.89,331 C1098.95,332.33 1099.03,333.66 1099.12,335 L1.61,335 C1.86,333.67 2.09,332.33 2.31,331 L2.31,331 Z" id="Shape" sketch:type="MSShapeGroup"></path>
            </g>
        </g>
    </g>
</svg>