<?xml version="1.0" encoding="UTF-8" standalone="no"?>
<svg width="952px" height="304px" viewBox="0 0 952 304" version="1.1" xmlns="http://www.w3.org/2000/svg" xmlns:xlink="http://www.w3.org/1999/xlink" xmlns:sketch="http://www.bohemiancoding.com/sketch/ns">
    <!-- Generator: Sketch 3.5.2 (25235) - http://www.bohemiancoding.com/sketch -->
    <title>inspired-overlay</title>
    <desc>Created with Sketch.</desc>
    <defs></defs>
    <g id="Page-1" stroke="none" stroke-width="1" fill="none" fill-rule="evenodd" sketch:type="MSPage">
        <g id="Artboard-1" sketch:type="MSArtboardGroup" transform="translate(-909.000000, -575.000000)">
            <g id="inspired-overlay" sketch:type="MSLayerGroup" transform="translate(911.000000, 577.000000)">
                <path d="M21.13,203.99 C31.21,203.99 37.46,208.58 37.46,216.15 C37.6550743,221.371504 34.0332913,225.963332 28.91,226.99 C35.44,228.1 39.33,232.76 39.33,239.29 C39.33,247.63 32.59,252.63 21.61,252.63 L0,252.63 L0,203.99 L21.13,203.99 L21.13,203.99 Z M8.2,224.14 L20.71,224.14 C25.92,224.14 29.05,221.71 29.05,217.61 C29.05,213.51 25.92,211.29 20.71,211.29 L8.2,211.29 L8.2,224.14 L8.2,224.14 Z M8.2,245.33 L20.71,245.33 C27.1,245.33 30.92,242.83 30.92,238.24 C30.92,233.93 27.1,231.36 20.71,231.36 L8.2,231.36 L8.2,245.36 L8.2,245.33 Z" id="Shape" fill="#FFFFFF" sketch:type="MSShapeGroup"></path>
                <path d="M72.52,252.63 L64.35,252.63 L64.35,236.72 L46.21,203.99 L54.52,203.99 L68.42,227.68 L82,203.99 L90.34,203.99 L72.52,236.44 L72.52,252.63 L72.52,252.63 Z" id="Shape" fill="#FFFFFF" sketch:type="MSShapeGroup"></path>
                <path d="M139.46,211.36 L139.46,252.64 L131.26,252.64 L131.26,211.36 L115.9,211.36 L115.9,203.99 L154.9,203.99 L154.9,211.35 L139.46,211.35 L139.46,211.36 Z" id="Shape" fill="#FFFFFF" sketch:type="MSShapeGroup"></path>
                <path d="M199.35,252.63 L199.35,232.48 L173.57,232.48 L173.57,252.63 L165.37,252.63 L165.37,203.99 L173.57,203.99 L173.57,225.11 L199.35,225.11 L199.35,203.99 L207.52,203.99 L207.52,252.63 L199.32,252.63 L199.35,252.63 Z" id="Shape" fill="#FFFFFF" sketch:type="MSShapeGroup"></path>
                <path d="M232.01,211.36 L232.01,224.49 L255.77,224.49 L255.77,231.85 L232.01,231.85 L232.01,245.26 L259.39,245.26 L259.39,252.63 L223.81,252.63 L223.81,203.99 L258.52,203.99 L258.52,211.35 L232.01,211.35 L232.01,211.36 Z" id="Shape" fill="#FFFFFF" sketch:type="MSShapeGroup"></path>
                <path d="M327.27,208.65 L323.86,215.88 C319.588169,213.158489 314.679386,211.600365 309.62,211.36 C304.83,211.36 301.7,213.17 301.7,216.43 C301.7,227.06 327.97,221.36 327.9,238.87 C327.9,247.56 320.26,252.87 309.56,252.87 C302.214811,252.826156 295.142394,250.081902 289.69,245.16 L293.23,238.07 C298.23,242.66 304.49,245.16 309.7,245.16 C315.4,245.16 318.8,243.01 318.8,239.25 C318.8,228.41 292.53,234.45 292.53,217.15 C292.53,208.81 299.69,203.6 310.25,203.6 C316.28877,203.626222 322.194163,205.378409 327.27,208.65 L327.27,208.65 Z" id="Shape" fill="#FFFFFF" sketch:type="MSShapeGroup"></path>
                <path d="M358.75,211.36 L358.75,252.64 L350.52,252.64 L350.52,211.36 L335.19,211.36 L335.19,203.99 L374.19,203.99 L374.19,211.35 L358.75,211.35 L358.75,211.36 Z" id="Shape" fill="#FFFFFF" sketch:type="MSShapeGroup"></path>
                <path d="M415.704928,215.958465 L422.711838,211.708422 C426.817965,216.025613 429.28,221.810308 429.28,228.31 C429.28,242.21 418.02,252.98 403.5,252.98 C388.98,252.98 377.72,242.21 377.72,228.31 C377.72,214.41 388.98,203.78 403.5,203.78 C407.257294,203.78 410.796297,204.491787 413.978394,205.787835 L412.001317,213.200035 C409.484278,211.798466 406.585385,211 403.5,211 C393.835017,211 386,218.835017 386,228.5 C386,238.164983 393.835017,246 403.5,246 C413.164983,246 421,238.164983 421,228.5 C421,223.581899 418.971231,219.137642 415.704928,215.958465 Z" id="Path" fill="#FFFFFF" sketch:type="MSShapeGroup"></path>
                <path d="M463.46,237.9 C462.77,237.97 462,237.97 461.24,237.97 L449.71,237.97 L449.71,252.63 L441.52,252.63 L441.52,203.99 L461.25,203.99 C473.69,203.99 480.85,209.99 480.85,220.6 C480.85,228.38 477.24,233.87 470.77,236.37 L481.68,252.63 L472.37,252.63 L463.46,237.9 Z M461.24,230.6 C468.74,230.6 473.05,227.4 473.05,220.8 C473.05,214.41 468.74,211.35 461.24,211.35 L449.71,211.35 L449.71,230.6 L461.24,230.6 L461.24,230.6 Z" id="Shape" fill="#FFFFFF" sketch:type="MSShapeGroup"></path>
                <path d="M495.22,252.63 L495.22,203.99 L503.42,203.99 L503.42,252.63 L495.22,252.63 L495.22,252.63 Z" id="Shape" fill="#FFFFFF" sketch:type="MSShapeGroup"></path>
                <path d="M527.87,211.36 L527.87,224.49 L551.63,224.49 L551.63,231.85 L527.87,231.85 L527.87,245.26 L555.25,245.26 L555.25,252.63 L519.67,252.63 L519.67,203.99 L554.42,203.99 L554.42,211.35 L527.87,211.35 L527.87,211.36 Z" id="Shape" fill="#FFFFFF" sketch:type="MSShapeGroup"></path>
                <path d="M601.74,208.65 L598.33,215.88 C594.058169,213.158489 589.149386,211.600365 584.09,211.36 C579.3,211.36 576.17,213.17 576.17,216.43 C576.17,227.06 602.44,221.36 602.37,238.87 C602.37,247.56 594.73,252.87 584.03,252.87 C576.684633,252.827091 569.611895,250.082712 564.16,245.16 L567.7,238.07 C572.7,242.66 578.96,245.16 584.17,245.16 C589.87,245.16 593.27,243.01 593.27,239.25 C593.27,228.41 567,234.45 567,217.15 C567,208.81 574.16,203.6 584.72,203.6 C590.75877,203.626222 596.664163,205.378409 601.74,208.65 L601.74,208.65 Z" id="Shape" fill="#FFFFFF" sketch:type="MSShapeGroup"></path>
                <path d="M678.45,252.63 L666.91,214.69 L655.24,252.63 L646.76,252.63 L630.64,203.99 L639.46,203.99 L651.27,243.53 L663.01,204.06 L671.07,203.99 L682.88,243.53 L694.64,203.99 L703.12,203.99 L686.86,252.63 L678.45,252.63 L678.45,252.63 Z" id="Shape" fill="#FFFFFF" sketch:type="MSShapeGroup"></path>
                <path d="M720.52,211.36 L720.52,224.49 L744.28,224.49 L744.28,231.85 L720.52,231.85 L720.52,245.26 L747.9,245.26 L747.9,252.63 L712.29,252.63 L712.29,203.99 L747.03,203.99 L747.03,211.35 L720.52,211.35 L720.52,211.36 Z" id="Shape" fill="#FFFFFF" sketch:type="MSShapeGroup"></path>
                <path d="M800.52,211.36 L800.52,252.64 L792.32,252.64 L792.32,211.36 L776.97,211.36 L776.97,203.99 L815.97,203.99 L815.97,211.35 L800.52,211.35 L800.52,211.36 Z" id="Shape" fill="#FFFFFF" sketch:type="MSShapeGroup"></path>
                <path d="M834.65,211.36 L834.65,224.49 L858.41,224.49 L858.41,231.85 L834.65,231.85 L834.65,245.26 L862.03,245.26 L862.03,252.63 L826.45,252.63 L826.45,203.99 L861.19,203.99 L861.19,211.35 L834.65,211.35 L834.65,211.36 Z" id="Shape" fill="#FFFFFF" sketch:type="MSShapeGroup"></path>
                <path d="M904.76,245.2 L904.76,252.64 L875.52,252.64 L875.52,203.99 L883.72,203.99 L883.72,245.19 L904.78,245.19 L904.76,245.2 Z" id="Shape" fill="#FFFFFF" sketch:type="MSShapeGroup"></path>
                <path d="M945.34,245.2 L945.34,252.64 L916.08,252.64 L916.08,203.99 L924.28,203.99 L924.28,245.19 L945.34,245.19 L945.34,245.2 Z" id="Shape" fill="#FFFFFF" sketch:type="MSShapeGroup"></path>
                <path d="M0,176.31 L0,46.99 L3.7,46.99 L3.7,176.31 L0,176.31 L0,176.31 Z" id="Shape" fill="#FFFFFF" sketch:type="MSShapeGroup"></path>
                <path d="M159.84,176.31 L68.63,50.7 L68.63,176.31 L64.93,176.31 L64.93,46.99 L70.52,46.99 L161.72,172.6 L161.72,46.99 L165.42,46.99 L165.42,176.31 L159.87,176.31 L159.84,176.31 Z" id="Shape" fill="#FFFFFF" sketch:type="MSShapeGroup"></path>
                <path d="M293.22,56.44 L291.37,59.44 C283.04,54.08 270.28,50.75 258.81,50.75 C236.06,50.75 221.26,60.55 221.26,75.75 C221.26,119.04 298.96,96.84 298.59,144.94 C298.59,163.99 281.38,176.39 254.75,176.39 C238.47,176.39 221.27,169.18 210.54,158.26 L213.13,155.67 C222.93,166.03 239.21,172.67 254.75,172.67 C279.17,172.67 294.89,161.75 294.89,144.92 C295.26,100.47 217.52,122.67 217.52,75.68 C217.52,58.29 233.84,46.99 258.81,46.99 C270.84,46.99 284.34,50.7 293.22,56.44 L293.22,56.44 Z" id="Shape" fill="#FFFFFF" sketch:type="MSShapeGroup"></path>
                <path d="M394.05,46.99 C425.52,46.99 443.44,62.36 443.44,88.99 C443.44,116.18 425.49,131.91 394.05,131.91 L353.9,131.91 L353.9,176.31 L350.2,176.31 L350.2,46.99 L394.04,46.99 L394.05,46.99 Z M353.9,128.22 L394.04,128.22 C423.04,128.22 439.73,113.97 439.73,89 C439.73,64.58 423.08,50.71 394.04,50.71 L353.9,50.71 L353.9,128.22 L353.9,128.22 Z" id="Shape" fill="#FFFFFF" sketch:type="MSShapeGroup"></path>
                <path d="M486.52,176.31 L486.52,46.99 L490.22,46.99 L490.22,176.31 L486.52,176.31 L486.52,176.31 Z" id="Shape" fill="#FFFFFF" sketch:type="MSShapeGroup"></path>
                <path d="M611.23,130.44 L644.71,176.32 L640.09,176.32 L607.16,131.18 C603.22851,131.628134 599.276693,131.875122 595.32,131.92 L555.18,131.92 L555.18,176.32 L551.52,176.32 L551.52,46.99 L595.32,46.99 C626.77,46.99 644.71,62.34 644.71,88.99 C644.72,111.2 632.69,125.81 611.23,130.44 L611.23,130.44 Z M595.32,128.22 C624.32,128.22 641.01,113.97 641.01,89 C641.01,64.58 624.36,50.71 595.32,50.71 L555.18,50.71 L555.18,128.22 L595.32,128.22 L595.32,128.22 Z" id="Shape" fill="#FFFFFF" sketch:type="MSShapeGroup"></path>
                <path d="M702.62,50.7 L702.62,107.87 L771.25,107.87 L771.25,111.57 L702.62,111.57 L702.62,172.57 L782.35,172.57 L782.35,176.27 L698.92,176.27 L698.92,46.99 L779.76,46.99 L779.76,50.69 L702.62,50.69 L702.62,50.7 Z" id="Shape" fill="#FFFFFF" sketch:type="MSShapeGroup"></path>
                <path d="M882.81,46.99 C919.25,46.99 949.04,75.99 949.04,111.74 C949.04,147.26 919.26,176.3 882.81,176.3 L831.93,176.3 L831.93,46.99 L882.81,46.99 L882.81,46.99 Z M835.63,172.61 L882.8,172.61 C917.21,172.61 945.33,145.23 945.33,111.75 C945.33,78.08 917.21,50.75 882.8,50.75 L835.63,50.75 L835.63,172.61 L835.63,172.61 Z" id="Shape" fill="#FFFFFF" sketch:type="MSShapeGroup"></path>
                <path d="M1.5,1.5 L943.619995,1.5" id="Line" stroke="#FFFFFF" stroke-width="7" stroke-linecap="square" sketch:type="MSShapeGroup"></path>
                <path d="M2.5,298.5 L944.619995,298.5" id="Line-Copy" stroke="#FFFFFF" stroke-width="7" stroke-linecap="square" sketch:type="MSShapeGroup"></path>
            </g>
        </g>
    </g>
</svg>