<svg id="Layer_1" data-name="Layer 1" xmlns="http://www.w3.org/2000/svg" viewBox="0 0 949.03 205.98"><defs><style>.cls-1{fill:#fff;}</style></defs><title>Inspired</title><path class="cls-1" d="M26.61,163c10.08,0,16.33,4.59,16.33,12.16A10.65,10.65,0,0,1,34.39,186c6.53,1.11,10.42,5.77,10.42,12.3,0,8.34-6.74,13.34-17.72,13.34H5.48V163H26.61ZM13.68,183.15H26.19c5.21,0,8.34-2.43,8.34-6.53s-3.13-6.32-8.34-6.32H13.68v12.85Zm0,21.19H26.19c6.39,0,10.21-2.5,10.21-7.09,0-4.31-3.82-6.88-10.21-6.88H13.68v14Z" transform="translate(-5.48 -6.01)"/><path class="cls-1" d="M78,211.64H69.83V195.73L51.69,163H60l13.9,23.69L87.48,163h8.34L78,195.45v16.19Z" transform="translate(-5.48 -6.01)"/><path class="cls-1" d="M144.94,170.37v41.28h-8.2V170.37H121.38V163h39v7.36H144.94Z" transform="translate(-5.48 -6.01)"/><path class="cls-1" d="M204.83,211.64V191.49H179.05v20.15h-8.2V163h8.2v21.12h25.78V163H213v48.64h-8.2Z" transform="translate(-5.48 -6.01)"/><path class="cls-1" d="M237.49,170.37V183.5h23.76v7.36H237.49v13.41h27.38v7.37H229.29V163H264v7.36H237.49Z" transform="translate(-5.48 -6.01)"/><path class="cls-1" d="M332.75,167.66l-3.41,7.23a29.07,29.07,0,0,0-14.24-4.52c-4.79,0-7.92,1.81-7.92,5.07,0,10.63,26.27,4.93,26.2,22.44,0,8.69-7.64,14-18.34,14a29.92,29.92,0,0,1-19.87-7.71l3.54-7.09c5,4.59,11.26,7.09,16.47,7.09,5.7,0,9.1-2.15,9.1-5.91,0-10.84-26.27-4.8-26.27-22.1,0-8.34,7.16-13.55,17.72-13.55A31.67,31.67,0,0,1,332.75,167.66Z" transform="translate(-5.48 -6.01)"/><path class="cls-1" d="M364.23,170.37v41.28H356V170.37H340.67V163h39v7.36H364.23Z" transform="translate(-5.48 -6.01)"/><path class="cls-1" d="M434.76,187.32c0,13.9-11.26,24.67-25.78,24.67s-25.78-10.77-25.78-24.67,11.26-24.53,25.78-24.53S434.76,173.42,434.76,187.32Zm-43.22,0A17.44,17.44,0,0,0,409,204.62,17.23,17.23,0,1,0,391.54,187.32Z" transform="translate(-5.48 -6.01)"/><path class="cls-1" d="M468.94,196.91c-0.69.07-1.46,0.07-2.22,0.07H455.19v14.66H447V163h19.73c12.44,0,19.6,6,19.6,16.61,0,7.78-3.61,13.27-10.08,15.77l10.91,16.26h-9.31Zm-2.22-7.3c7.5,0,11.81-3.2,11.81-9.8,0-6.39-4.31-9.45-11.81-9.45H455.19v19.25h11.53Z" transform="translate(-5.48 -6.01)"/><path class="cls-1" d="M500.7,211.64V163h8.2v48.64h-8.2Z" transform="translate(-5.48 -6.01)"/><path class="cls-1" d="M533.35,170.37V183.5h23.76v7.36H533.35v13.41h27.38v7.37H525.15V163H559.9v7.36H533.35Z" transform="translate(-5.48 -6.01)"/><path class="cls-1" d="M607.22,167.66l-3.41,7.23a29.07,29.07,0,0,0-14.24-4.52c-4.79,0-7.92,1.81-7.92,5.07,0,10.63,26.27,4.93,26.2,22.44,0,8.69-7.64,14-18.34,14a29.91,29.91,0,0,1-19.87-7.71l3.54-7.09c5,4.59,11.26,7.09,16.47,7.09,5.7,0,9.1-2.15,9.1-5.91,0-10.84-26.27-4.8-26.27-22.1,0-8.34,7.16-13.55,17.72-13.55A31.67,31.67,0,0,1,607.22,167.66Z" transform="translate(-5.48 -6.01)"/><path class="cls-1" d="M683.93,211.64L672.39,173.7l-11.67,37.94h-8.48L636.12,163h8.82l11.81,39.54,11.74-39.47,8.06-.07,11.81,39.54L700.12,163h8.48l-16.26,48.64h-8.41Z" transform="translate(-5.48 -6.01)"/><path class="cls-1" d="M726,170.37V183.5h23.76v7.36H726v13.41h27.38v7.37H717.77V163h34.74v7.36H726Z" transform="translate(-5.48 -6.01)"/><path class="cls-1" d="M806,170.37v41.28h-8.2V170.37H782.45V163h39v7.36H806Z" transform="translate(-5.48 -6.01)"/><path class="cls-1" d="M840.13,170.37V183.5h23.76v7.36H840.13v13.41h27.38v7.37H831.93V163h34.74v7.36H840.13Z" transform="translate(-5.48 -6.01)"/><path class="cls-1" d="M910.24,204.21v7.44H881V163h8.2v41.2h21.06Z" transform="translate(-5.48 -6.01)"/><path class="cls-1" d="M950.82,204.21v7.44H921.56V163h8.2v41.2h21.06Z" transform="translate(-5.48 -6.01)"/><path class="cls-1" d="M5.48,135.32V6h3.7V135.32H5.48Z" transform="translate(-5.48 -6.01)"/><path class="cls-1" d="M165.32,135.32L74.11,9.71V135.32h-3.7V6H76l91.2,125.61V6h3.7V135.32h-5.55Z" transform="translate(-5.48 -6.01)"/><path class="cls-1" d="M298.7,15.45l-1.85,3c-8.33-5.36-21.09-8.69-32.56-8.69-22.75,0-37.55,9.8-37.55,25,0,43.29,77.7,21.09,77.33,69.19,0,19.05-17.21,31.45-43.84,31.45-16.28,0-33.48-7.21-44.21-18.13l2.59-2.59c9.8,10.36,26.08,17,41.62,17,24.42,0,40.14-10.92,40.14-27.75C300.74,59.48,223,81.68,223,34.69,223,17.3,239.32,6,264.29,6,276.32,6,289.82,9.71,298.7,15.45Z" transform="translate(-5.48 -6.01)"/><path class="cls-1" d="M399.53,6C431,6,448.92,21.37,448.92,48c0,27.19-17.95,42.92-49.39,42.92H359.38v44.4h-3.7V6h43.84ZM359.38,87.23h40.14c29,0,45.69-14.25,45.69-39.22,0-24.42-16.65-38.29-45.69-38.29H359.38V87.23Z" transform="translate(-5.48 -6.01)"/><path class="cls-1" d="M492,135.32V6h3.7V135.32H492Z" transform="translate(-5.48 -6.01)"/><path class="cls-1" d="M616.71,89.45l33.48,45.88h-4.62L612.64,90.19a116.18,116.18,0,0,1-11.84.74H560.66v44.4H557V6H600.8c31.45,0,49.39,15.35,49.39,42C650.2,70.21,638.17,84.82,616.71,89.45ZM600.8,87.23c29,0,45.69-14.25,45.69-39.22,0-24.42-16.65-38.29-45.69-38.29H560.66V87.23H600.8Z" transform="translate(-5.48 -6.01)"/><path class="cls-1" d="M708.1,9.71V66.88h68.63v3.7H708.1v61h79.73v3.7H704.4V6h80.84v3.7H708.1Z" transform="translate(-5.48 -6.01)"/><path class="cls-1" d="M888.29,6c36.44,0,66.23,29,66.23,64.75,0,35.52-29.78,64.56-66.23,64.56H837.41V6h50.88ZM841.11,131.62h47.17c34.41,0,62.53-27.38,62.53-60.86,0-33.67-28.12-61-62.53-61H841.11V131.62Z" transform="translate(-5.48 -6.01)"/></svg>