<?xml version="1.0" encoding="UTF-8" standalone="no"?>
<svg width="351px" height="114px" viewBox="20 -47 351 120" version="1.1" xmlns="http://www.w3.org/2000/svg" xmlns:xlink="http://www.w3.org/1999/xlink" xmlns:sketch="http://www.bohemiancoding.com/sketch/ns">
    <g id="symbolEmberLogo">
        <path fill="#F67700" d="M70.042,35.834"/>
        <path fill="#F67700" d="M207.501-46.938V6.976c0,8.753,3.144,13.132,9.437,13.132c2.682,0,4.958-0.913,6.83-2.739
            c1.869-1.827,2.805-4.036,2.805-6.632c0-2.685-0.882-4.939-2.64-6.765c-1.762-1.827-3.916-2.738-6.465-2.738
            c-1.804,0-3.872,0.792-6.205,2.376v-27.189c2.905-0.265,5.104-0.396,6.601-0.396c9.282,0,17.232,3.343,23.854,10.031
            c6.621,6.688,9.932,14.738,9.932,24.153c0,9.634-3.365,17.751-10.097,24.35c-6.73,6.601-15.005,9.898-24.812,9.898
            c-4.927,0-9.734-1.081-14.42-3.233c-4.686-2.155-8.548-5.059-11.581-8.71c-5.278-6.335-7.92-14.54-7.92-24.615v-54.836H207.501z"/>
        <path fill="#F67700" d="M322.408,14.233h-37.415c-0.572-1.892-0.858-3.63-0.858-5.212c0-2.199,0.396-4.354,1.188-6.466h12.538
            c-0.88-4.884-3.629-7.325-8.248-7.325c-3.08,0-5.587,1.309-7.523,3.927c-1.938,2.619-2.903,5.973-2.903,10.063
            c0,4.266,0.936,7.72,2.805,10.361c1.87,2.638,4.322,3.958,7.357,3.958c2.462,0,4.84-1.23,7.127-3.695l14.056,16.893
            c-6.559,5.147-13.836,7.72-21.844,7.72c-9.765,0-17.973-3.277-24.612-9.832c-6.643-6.555-9.966-14.671-9.966-24.35
            c0-9.634,3.354-17.774,10.062-24.416c6.709-6.641,14.948-9.965,24.713-9.965c9.546,0,17.563,3.246,24.053,9.734
            c6.488,6.491,9.733,14.484,9.733,23.988C322.671,10.583,322.583,12.122,322.408,14.233z"/>
        <path fill="#F67700" d="M363.167-23.314V3.082c-1.716-0.969-3.277-1.451-4.686-1.451c-4.488,0-6.73,3.432-6.73,10.293v31.212
            h-24.68V7.174c0-9.501,2.596-17.081,7.787-22.735c5.188-5.651,12.119-8.479,20.786-8.479
            C357.578-24.04,360.085-23.798,363.167-23.314z"/>
        <line fill="none" x1="67.396" y1="36.285" x2="67.423" y2="36.318"/>
        <path fill="#F67700" d="M41.654,8.097"/>
        <path fill="#F67700" d="M110.487,14.087V7.702c0-4.884,1.363-7.324,4.093-7.324c1.493,0,2.541,0.527,3.134,1.584
            c0.593,1.058,0.892,2.947,0.892,5.675V30.13c2.555,5.66,5.632,10.47,11.145,13.007h13.536V7.702c0-4.884,1.385-7.324,4.157-7.324
            c1.495,0,2.531,0.527,3.102,1.584c0.57,1.055,0.858,2.947,0.858,5.675v35.501h24.679V5.391c0-8.931-1.958-15.728-5.873-20.392
            c-4.974-5.982-11.572-8.974-19.798-8.974c-6.466,0-12.935,3.08-19.4,9.238c-5.807-6.158-12.362-9.238-19.665-9.238
            c-7.084,0-13.109,2.584-18.081,7.754c-4.972,5.171-7.458,11.449-7.458,18.84v0.616c5.037-0.066,10.082,0.892,15.056,3.101
            C105.065,8.203,108.107,10.925,110.487,14.087z"/>
        <path fill="#F67700" d="M98.184,39.035c-0.218-0.509-0.232-0.63-0.485-1.268c-1.315-3.329-3.385-8.093-6.479-9.678
            c-1.866-0.957-3.508-1.008-5.414-0.891v15.938H99.77c-0.432-0.977-0.688-1.881-1.089-2.815L98.184,39.035z"/>
        <path fill="#F67700" d="M143.567,46.29c-18.999,0-22.424-7.973-27.165-19.008c-3.18-7.405-6.785-15.794-15.825-19.813
            c-7.234-3.215-13.903-3.704-19.814-2.701c0.199,1.577,0.336,3.179,0.336,4.847c0,0.969-0.089,2.507-0.265,4.619L59.12,14.311
            c-2.793,2.244-3.784,3.311-5.126,4.609c-2.289,2.462-4.663,3.695-7.128,3.695c-3.034,0-5.488-1.32-7.357-3.959
            c-1.872-2.639-2.805-6.092-2.805-10.361c0-4.091,0.967-7.446,2.904-10.063c1.935-2.618,4.442-3.926,7.523-3.926
            c4.619,0,7.368,2.442,8.25,7.324H42.841c-0.792,2.112-1.188,4.267-1.188,6.466c0,1.584,0.285,3.322,0.858,5.213h37.416
            c0.174-2.112,0.265-3.651,0.265-4.62c0-9.5-3.246-17.497-9.734-23.986c-6.491-6.489-14.507-9.734-24.052-9.734
            c-9.766,0-18.005,3.322-24.713,9.965C14.985-8.423,11.631-0.285,11.631,9.348c0,9.678,3.322,17.794,9.965,24.35
            c6.643,6.555,14.847,9.833,24.613,9.833c7.745,0,14.802-2.431,21.189-7.248l0.026,0.035c0.141-0.115,0.295-0.246,0.439-0.368
            c0.063-0.048,0.126-0.09,0.188-0.136l-0.011-0.015c5.886-4.971,15.197-13.001,23.771-8.604c3.949,2.027,5.865,8.366,7.237,11.561
            c5.155,11.997,11.301,29.121,44.518,29.121l208.117-0.19V46.187L143.567,46.29z M314.57,50.495
            c-0.485-0.048-0.84-0.073-1.063-0.073c-1.081,0-1.618,0.543-1.618,1.632v1.66h2.682v1.247h-2.682v9.011h-1.501V54.96h-1.565
            v-1.247h1.565v-1.521c0-2.013,1.033-3.017,3.101-3.017c0.307,0,0.668,0.025,1.082,0.077V50.495L314.57,50.495z M317.166,63.971
            h-1.503V53.713h1.503V63.971z M317.166,51.012h-1.503v-1.687h1.503V51.012z M320.661,63.971h-1.501V49.326h1.501V63.971z
             M337.883,63.971h-1.501v-6.845c0-0.901-0.159-1.514-0.481-1.833c-0.321-0.322-0.93-0.483-1.824-0.483
            c-1.188,0-1.994,0.224-2.416,0.669s-0.631,1.296-0.631,2.557v5.932h-1.503v-6.703l-0.02-0.473c0-1.323-0.754-1.985-2.266-1.985
            c-2.046,0-3.068,1.11-3.068,3.336v5.825h-1.502V53.71h1.502l-0.031,1.547l0.031,0.032c0.581-1.152,1.695-1.729,3.349-1.729
            c1.737,0,2.793,0.577,3.165,1.729h0.043c0.643-1.152,1.819-1.729,3.53-1.729c2.417,0,3.625,1.235,3.625,3.704v6.707H337.883z
             M347.421,63.48c-0.616,0.431-1.742,0.642-3.381,0.642c-1.683,0-2.837-0.2-3.472-0.608c-0.63-0.411-0.949-1.157-0.949-2.242
            l0.011-0.557h1.559l0.011,0.479c0,0.673,0.171,1.124,0.514,1.352c0.344,0.222,1.019,0.337,2.028,0.337
            c1.237,0,2.052-0.117,2.44-0.355c0.392-0.234,0.586-0.729,0.586-1.481c0-1.077-0.491-1.62-1.47-1.62
            c-2.282,0-3.783-0.19-4.502-0.579c-0.719-0.385-1.078-1.188-1.078-2.401c0-1.151,0.286-1.919,0.854-2.302
            c0.568-0.382,1.701-0.576,3.395-0.576c2.719,0,4.077,0.821,4.077,2.46v0.374h-1.502c0-0.715-0.145-1.158-0.434-1.331
            c-0.29-0.172-1.036-0.257-2.236-0.257c-1.115,0-1.826,0.092-2.127,0.271c-0.299,0.184-0.449,0.623-0.449,1.316
            c0,1.052,0.505,1.602,1.513,1.653l1.214,0.063l1.532,0.077c1.86,0.092,2.79,1.066,2.79,2.918
            C348.345,62.259,348.035,63.051,347.421,63.48z"/>
    </g>

</svg>