<?xml version="1.0" encoding="UTF-8" standalone="no"?>
<svg width="353px" height="115px" viewBox="0 0 353 115" version="1.1" xmlns="http://www.w3.org/2000/svg" xmlns:xlink="http://www.w3.org/1999/xlink" xmlns:sketch="http://www.bohemiancoding.com/sketch/ns">
    <!-- Generator: Sketch 3.4.4 (17249) - http://www.bohemiancoding.com/sketch -->
    <title>logo</title>
    <desc>Created with Sketch.</desc>
    <defs></defs>
    <g id="Page-1" stroke="none" stroke-width="1" fill="none" fill-rule="evenodd" sketch:type="MSPage">
        <g id="logo" sketch:type="MSLayerGroup">
            <path d="M196.501,0.062 L196.501,53.976 C196.501,62.729 199.645,67.108 205.938,67.108 C208.62,67.108 210.896,66.195 212.768,64.369 C214.637,62.542 215.573,60.333 215.573,57.737 C215.573,55.052 214.691,52.798 212.933,50.972 C211.171,49.145 209.017,48.234 206.468,48.234 C204.664,48.234 202.596,49.026 200.263,50.61 L200.263,23.421 C203.168,23.156 205.367,23.025 206.864,23.025 C216.146,23.025 224.096,26.368 230.718,33.056 C237.339,39.744 240.65,47.794 240.65,57.209 C240.65,66.843 237.285,74.96 230.553,81.559 C223.823,88.16 215.548,91.457 205.741,91.457 C200.814,91.457 196.007,90.376 191.321,88.224 C186.635,86.069 182.773,83.165 179.74,79.514 C174.462,73.179 171.82,64.974 171.82,54.899 L171.82,0.063 L196.501,0.063 L196.501,0.062 Z" id="Shape" fill="#FFFFFF" sketch:type="MSShapeGroup"></path>
            <path d="M311.408,61.233 L273.993,61.233 C273.421,59.341 273.135,57.603 273.135,56.021 C273.135,53.822 273.531,51.667 274.323,49.555 L286.861,49.555 C285.981,44.671 283.232,42.23 278.613,42.23 C275.533,42.23 273.026,43.539 271.09,46.157 C269.152,48.776 268.187,52.13 268.187,56.22 C268.187,60.486 269.123,63.94 270.992,66.581 C272.862,69.219 275.314,70.539 278.349,70.539 C280.811,70.539 283.189,69.309 285.476,66.844 L299.532,83.737 C292.973,88.884 285.696,91.457 277.688,91.457 C267.923,91.457 259.715,88.18 253.076,81.625 C246.433,75.07 243.11,66.954 243.11,57.275 C243.11,47.641 246.464,39.501 253.172,32.859 C259.881,26.218 268.12,22.894 277.885,22.894 C287.431,22.894 295.448,26.14 301.938,32.628 C308.426,39.119 311.671,47.112 311.671,56.616 C311.671,57.583 311.583,59.122 311.408,61.233 L311.408,61.233 Z" id="Shape" fill="#FFFFFF" sketch:type="MSShapeGroup"></path>
            <path d="M352.167,23.686 L352.167,50.082 C350.451,49.113 348.89,48.631 347.481,48.631 C342.993,48.631 340.751,52.063 340.751,58.924 L340.751,90.136 L316.071,90.136 L316.071,54.174 C316.071,44.673 318.667,37.093 323.858,31.439 C329.046,25.788 335.977,22.96 344.644,22.96 C346.578,22.96 349.085,23.202 352.167,23.686 L352.167,23.686 Z" id="Shape" fill="#FFFFFF" sketch:type="MSShapeGroup"></path>
            <path d="M56.396,83.285 L56.423,83.318" id="Shape" sketch:type="MSShapeGroup"></path>
            <path d="M99.487,61.087 L99.487,54.702 C99.487,49.818 100.85,47.378 103.58,47.378 C105.073,47.378 106.121,47.905 106.714,48.962 C107.307,50.02 107.606,51.909 107.606,54.637 L107.606,77.13 C110.161,82.79 113.238,87.6 118.751,90.137 L132.287,90.137 L132.287,54.702 C132.287,49.818 133.672,47.378 136.444,47.378 C137.939,47.378 138.975,47.905 139.546,48.962 C140.116,50.017 140.404,51.909 140.404,54.637 L140.404,90.138 L165.083,90.138 L165.083,52.391 C165.083,43.46 163.125,36.663 159.21,31.999 C154.236,26.017 147.638,23.025 139.412,23.025 C132.946,23.025 126.477,26.105 120.012,32.263 C114.205,26.105 107.65,23.025 100.347,23.025 C93.263,23.025 87.238,25.609 82.266,30.779 C77.294,35.95 74.808,42.228 74.808,49.619 L74.808,50.235 C79.845,50.169 84.89,51.127 89.864,53.336 C94.065,55.203 97.107,57.925 99.487,61.087 L99.487,61.087 Z" id="Shape" fill="#FFFFFF" sketch:type="MSShapeGroup"></path>
            <path d="M87.184,86.035 C86.966,85.526 86.952,85.405 86.699,84.767 C85.384,81.438 83.314,76.674 80.22,75.089 C78.354,74.132 76.712,74.081 74.806,74.198 L74.806,90.136 L88.77,90.136 C88.338,89.159 88.082,88.255 87.681,87.321 L87.184,86.035 L87.184,86.035 Z" id="Shape" fill="#FFFFFF" sketch:type="MSShapeGroup"></path>
            <path d="M132.567,93.29 C113.568,93.29 110.143,85.317 105.402,74.282 C102.222,66.877 98.617,58.488 89.577,54.469 C82.343,51.254 75.674,50.765 69.763,51.768 C69.962,53.345 70.099,54.947 70.099,56.615 C70.099,57.584 70.01,59.122 69.834,61.234 L48.12,61.311 C45.327,63.555 44.336,64.622 42.994,65.92 C40.705,68.382 38.331,69.615 35.866,69.615 C32.832,69.615 30.378,68.295 28.509,65.656 C26.637,63.017 25.704,59.564 25.704,55.295 C25.704,51.204 26.671,47.849 28.608,45.232 C30.543,42.614 33.05,41.306 36.131,41.306 C40.75,41.306 43.499,43.748 44.381,48.63 L31.841,48.63 C31.049,50.742 30.653,52.897 30.653,55.096 C30.653,56.68 30.938,58.418 31.511,60.309 L68.927,60.309 C69.101,58.197 69.192,56.658 69.192,55.689 C69.192,46.189 65.946,38.192 59.458,31.703 C52.967,25.214 44.951,21.969 35.406,21.969 C25.64,21.969 17.401,25.291 10.693,31.934 C3.985,38.577 0.631,46.715 0.631,56.348 C0.631,66.026 3.953,74.142 10.596,80.698 C17.239,87.253 25.443,90.531 35.209,90.531 C42.954,90.531 50.011,88.1 56.398,83.283 L56.424,83.318 C56.565,83.203 56.719,83.072 56.863,82.95 C56.926,82.902 56.989,82.86 57.051,82.814 L57.04,82.799 C62.926,77.828 72.237,69.798 80.811,74.195 C84.76,76.222 86.676,82.561 88.048,85.756 C93.203,97.753 99.349,114.877 132.566,114.877 L340.683,114.687 L340.683,93.187 L132.567,93.29 L132.567,93.29 Z M303.57,97.495 C303.085,97.447 302.73,97.422 302.507,97.422 C301.426,97.422 300.889,97.965 300.889,99.054 L300.889,100.714 L303.571,100.714 L303.571,101.961 L300.889,101.961 L300.889,110.972 L299.388,110.972 L299.388,101.96 L297.823,101.96 L297.823,100.713 L299.388,100.713 L299.388,99.192 C299.388,97.179 300.421,96.175 302.489,96.175 C302.796,96.175 303.157,96.2 303.571,96.252 L303.571,97.495 L303.57,97.495 L303.57,97.495 Z M306.166,110.971 L304.663,110.971 L304.663,100.713 L306.166,100.713 L306.166,110.971 L306.166,110.971 Z M306.166,98.012 L304.663,98.012 L304.663,96.325 L306.166,96.325 L306.166,98.012 L306.166,98.012 Z M309.661,110.971 L308.16,110.971 L308.16,96.326 L309.661,96.326 L309.661,110.971 L309.661,110.971 Z M326.883,110.971 L325.382,110.971 L325.382,104.126 C325.382,103.225 325.223,102.612 324.901,102.293 C324.58,101.971 323.971,101.81 323.077,101.81 C321.889,101.81 321.083,102.034 320.661,102.479 C320.239,102.924 320.03,103.775 320.03,105.036 L320.03,110.968 L318.527,110.968 L318.527,104.265 L318.507,103.792 C318.507,102.469 317.753,101.807 316.241,101.807 C314.195,101.807 313.173,102.917 313.173,105.143 L313.173,110.968 L311.671,110.968 L311.671,100.71 L313.173,100.71 L313.142,102.257 L313.173,102.289 C313.754,101.137 314.868,100.56 316.522,100.56 C318.259,100.56 319.315,101.137 319.687,102.289 L319.73,102.289 C320.373,101.137 321.549,100.56 323.26,100.56 C325.677,100.56 326.885,101.795 326.885,104.264 L326.885,110.971 L326.883,110.971 L326.883,110.971 Z M336.421,110.48 C335.805,110.911 334.679,111.122 333.04,111.122 C331.357,111.122 330.203,110.922 329.568,110.514 C328.938,110.103 328.619,109.357 328.619,108.272 L328.63,107.715 L330.189,107.715 L330.2,108.194 C330.2,108.867 330.371,109.318 330.714,109.546 C331.058,109.768 331.733,109.883 332.742,109.883 C333.979,109.883 334.794,109.766 335.182,109.528 C335.574,109.294 335.768,108.799 335.768,108.047 C335.768,106.97 335.277,106.427 334.298,106.427 C332.016,106.427 330.515,106.237 329.796,105.848 C329.077,105.463 328.718,104.66 328.718,103.447 C328.718,102.296 329.004,101.528 329.572,101.145 C330.14,100.763 331.273,100.569 332.967,100.569 C335.686,100.569 337.044,101.39 337.044,103.029 L337.044,103.403 L335.542,103.403 C335.542,102.688 335.397,102.245 335.108,102.072 C334.818,101.9 334.072,101.815 332.872,101.815 C331.757,101.815 331.046,101.907 330.745,102.086 C330.446,102.27 330.296,102.709 330.296,103.402 C330.296,104.454 330.801,105.004 331.809,105.055 L333.023,105.118 L334.555,105.195 C336.415,105.287 337.345,106.261 337.345,108.113 C337.345,109.259 337.035,110.051 336.421,110.48 L336.421,110.48 Z" id="Shape" fill="#FFFFFF" sketch:type="MSShapeGroup"></path>
        </g>
    </g>
</svg>