<?xml version="1.0" encoding="UTF-8" standalone="no"?>
<svg width="664px" height="382px" viewBox="0 0 664 382" version="1.1" xmlns="http://www.w3.org/2000/svg" xmlns:xlink="http://www.w3.org/1999/xlink" xmlns:sketch="http://www.bohemiancoding.com/sketch/ns">
    <!-- Generator: Sketch 3.5.2 (25235) - http://www.bohemiancoding.com/sketch -->
    <title>overlay-brand</title>
    <desc>Created with Sketch.</desc>
    <defs></defs>
    <g id="Page-1" stroke="none" stroke-width="1" fill="none" fill-rule="evenodd" sketch:type="MSPage">
        <g id="overlay-brand" sketch:type="MSArtboardGroup" fill="#FFFFFF">
            <path d="M-0.38671875,0 L664.613281,0 L664.613281,382 L-0.38671875,382 L-0.38671875,0 Z M73.640625,136.550863 C79.5286753,138.739416 84.0683434,141.848109 87.2597656,145.877035 C90.4511878,149.905962 92.046875,154.631175 92.046875,160.052817 C92.046875,165.673418 90.4264485,170.585152 87.1855469,174.788168 C83.9446453,178.991184 79.4791951,181.913355 73.7890625,183.55477 C80.4687834,184.897745 85.7877406,188.006438 89.7460938,192.880942 C93.7044469,197.755445 95.6835938,203.674396 95.6835938,210.637973 C95.6835938,216.656493 94.0136886,221.903966 90.6738281,226.380551 C87.3339677,230.857136 82.5963848,234.289133 76.4609375,236.676645 C70.3254902,239.064157 63.1016041,240.257895 54.7890625,240.257895 L2.61328125,240.257895 L2.61328125,133.268051 L52.9335938,133.268051 C60.8503,133.268051 67.7525747,134.362311 73.640625,136.550863 Z M29.5546875,176.093832 L51.4492188,176.093832 C55.4075719,176.093832 58.5494675,175.099051 60.875,173.109457 C63.2005325,171.119864 64.3632812,168.384214 64.3632812,164.902426 C64.3632812,161.520117 63.2005325,158.871511 60.875,156.956528 C58.5494675,155.041544 55.4075719,154.084067 51.4492188,154.084067 L29.5546875,154.084067 L29.5546875,176.093832 Z M29.5546875,219.29266 L51.4492188,219.29266 C56.496119,219.29266 60.4667824,218.22327 63.3613281,216.084457 C66.2558738,213.945644 67.703125,211.011038 67.703125,207.280551 C67.703125,203.699283 66.2558738,200.864155 63.3613281,198.775082 C60.4667824,196.686009 56.496119,195.641488 51.4492188,195.641488 L29.5546875,195.641488 L29.5546875,219.29266 Z M165.657599,210.190317 L164.841193,210.190317 L144.356818,210.190317 L144.356818,240.257895 L117.266974,240.257895 L117.266974,133.268051 L164.841193,133.268051 C178.942826,133.268051 189.840503,136.501092 197.534552,142.96727 C205.228601,149.433448 209.075568,158.635179 209.075568,170.572738 C209.075568,178.730071 207.430402,185.705978 204.140021,191.500668 C200.84964,197.295359 196.062578,201.784311 189.778693,204.96766 L212.118537,240.257895 L181.466193,240.257895 L165.657599,210.190317 Z M164.841193,188.777426 C170.729243,188.777426 175.293651,187.297688 178.534552,184.338168 C181.775454,181.378648 183.39588,177.088652 183.39588,171.468051 C183.39588,165.94693 181.775454,161.768846 178.534552,158.933676 C175.293651,156.098506 170.729243,154.680942 164.841193,154.680942 L144.356818,154.680942 L144.356818,188.777426 L164.841193,188.777426 Z M257.451917,220.56102 L249.733167,240.257895 L221.901136,240.257895 L267.768323,133.268051 L295.600354,133.268051 L340.428479,240.257895 L311.557386,240.257895 L303.987073,220.56102 L257.451917,220.56102 Z M280.830823,160.351254 L265.319104,199.894223 L296.045667,199.894223 L280.830823,160.351254 Z M430.589985,240.257895 L381.60561,174.377817 L381.60561,240.257895 L356.222797,240.257895 L356.222797,133.268051 L380.121235,133.268051 L429.179828,199.297348 L429.179828,133.268051 L454.414203,133.268051 L454.414203,240.257895 L430.589985,240.257895 Z M556.821802,140.020199 C565.381741,144.521654 572.048992,150.813649 576.823755,158.896371 C581.598519,166.979094 583.985865,176.267868 583.985865,186.762973 C583.985865,197.158598 581.54904,206.410068 576.675318,214.51766 C571.801596,222.625253 565.010648,228.942117 556.302271,233.468442 C547.593894,237.994766 537.599202,240.257895 526.317896,240.257895 L481.638209,240.257895 L481.638209,133.268051 L527.431177,133.268051 C538.465087,133.268051 548.261864,135.518745 556.821802,140.020199 Z M508.728052,218.546567 L528.024927,218.546567 C533.517142,218.546567 538.415531,217.228481 542.72024,214.59227 C547.024949,211.956059 550.389499,208.238062 552.81399,203.438168 C555.238481,198.638274 556.450709,193.129671 556.450709,186.912192 C556.450709,180.694713 555.189002,175.173674 552.665552,170.34891 C550.142102,165.524147 546.616747,161.756411 542.08938,159.04559 C537.562014,156.334769 532.47808,154.979379 526.837427,154.979379 L508.728052,154.979379 L508.728052,218.546567 Z" id="canvas" sketch:type="MSShapeGroup"></path>
        </g>
    </g>
</svg>